<?xml version="1.0" encoding="utf-8"?>
<?xml-stylesheet type="text/xsl" href="rss1.xsl"?>
<rss version="2.0" xmlns:atom="http://www.w3.org/2005/Atom" xmlns:content="http://purl.org/rss/1.0/modules/content/" xmlns:dc="http://purl.org/dc/elements/1.1/" xmlns:media="http://search.yahoo.com/mrss/">
<channel>
 <title>Getty</title>
 <link>http://www.gettyimg.com/</link>
 <atom:link href="http://www.gettyimg.com/" rel="self" type="application/rss+xml" />

 
                <item>
                <title><![CDATA[【Requests】[REQ AUD] - Kapten - Malaikat Cinta (2022)]]></title>
                <link><![CDATA[https://sharemania.us/threads/kapten-malaikat-cinta-2022.223945/]]></link>
                <description><![CDATA[<article>
<blockquote class="messageText SelectQuoteContainer ugc baseHtml">
Hi everything, I need this album in lossless<br>
<a href="https://www.qobuz.com/au-en/album/malaikat-cinta-kapten/rxy76we6k8tec" target="_blank" class="externalLink" rel="nofollow">https://www.qobuz.com/au-en/album/malaikat-cinta-kapten/rxy76we6k8tec</a><br>
<img src="https://static.qobuz.com/images/covers/ec/8t/rxy76we6k8tec_600.jpg" class="bbCodeImage LbImage" alt="[​IMG]" data-url="https://static.qobuz.com/images/covers/ec/8t/rxy76we6k8tec_600.jpg" style=""><br>
CHEERS
<div class="messageTextEndMarker">&nbsp;</div>
</blockquote>
</article>]]></description>
                <author><![CDATA[yoyon]]></author>
                </item>

                
                <item>
                <title><![CDATA[【Interviews / TV shows / Others】WEB-RiP - Olivia Rodrigo : The Apple Music Awards Interview [Apple Music | AVC | 1080p | Dolby Digital 5.1]]]></title>
                <link><![CDATA[https://sharemania.us/threads/olivia-rodrigo-the-apple-music-awards-interview-apple-music-avc-1080p-dolby-digital-5-1.223944/]]></link>
                <description><![CDATA[<article>
<blockquote class="messageText SelectQuoteContainer ugc baseHtml">
<img src="https://is3-ssl.mzstatic.com/image/thumb/Features116/v4/f8/10/6b/f8106bd8-4db0-809d-c562-18032e6cf296/U0MtTVMtV1ctT2xpdmlhX1JvZHJpZ28tSW50ZXJ2aWV3LW5vQU0ucG5n.png/1280x1280cc-60.jpg" class="bbCodeImage LbImage" alt="[​IMG]" data-url="https://is3-ssl.mzstatic.com/image/thumb/Features116/v4/f8/10/6b/f8106bd8-4db0-809d-c562-18032e6cf296/U0MtTVMtV1ctT2xpdmlhX1JvZHJpZ28tSW50ZXJ2aWV3LW5vQU0ucG5n.png/1280x1280cc-60.jpg" style=""> <br>
<br>
<b><span style="color: #ff0000">Olivia.Rodrigo.The.Apple.Music.Awards.Interview.Pt..1.2021.1080p.AM.WEB-DL.DD5.1.H.264-WKS.mkv</span></b><br>
<b><br>
<span style="color: #000000">
<div class="ToggleTriggerAnchor bbCodeSpoilerContainer">
<button type="button" class="button bbCodeSpoilerButton ToggleTrigger Tooltip JsOnly" data-target="> .SpoilerTarget"><span>Spoiler: <span class="SpoilerTitle">MediaInfo</span></span></button>
<div class="SpoilerTarget bbCodeSpoilerText">
<div class="bbCodeBlock bbCodeCode">
<div class="type">Code:</div>
<pre>General

Unique ID                                : 19466949703608496135218649413487516102 (0xEA532B90A91DB3B420B2BFB010159C6)
Complete name                            : C:\Users\Shadow\Desktop\SurroundHiRes-DL\DOWNLOADS\Olivia.Rodrigo.The.Apple.Music.Awards.Interview.Pt..1.2021.1080p.AM.WEB-DL.DD5.1.H.264-WKS.mkv
Format                                   : Matroska
Format version                           : Version 4
File size                                : 507 MiB
Duration                                 : 9 min 32 s
Overall bit rate                         : 7 427 kb/s
Frame rate                               : 23.976 FPS
Movie name                               : Olivia.Rodrigo.The.Apple.Music.Awards.Interview.Pt..1.2021.1080p.AM.WEB-DL.AC3.H.264-WKS
Encoded date                             : 2023-07-05 22:34:35 UTC
Writing application                      : mkvmerge v76.0 ('Celebration') 64-bit
Writing library                          : libebml v1.4.4 + libmatroska v1.7.1

Video
ID                                       : 1
Format                                   : AVC
Format/Info                              : Advanced Video Codec
Format profile                           : High@L4
Format settings                          : CABAC / 4 Ref Frames
Format settings, CABAC                   : Yes
Format settings, Reference frames        : 4 frames
Codec ID                                 : V_MPEG4/ISO/AVC
Duration                                 : 9 min 32 s
Bit rate                                 : 7 042 kb/s
Width                                    : 1 920 pixels
Height                                   : 1 080 pixels
Display aspect ratio                     : 16:9
Frame rate mode                          : Constant
Frame rate                               : 23.976 (24000/1001) FPS
Color space                              : YUV
Chroma subsampling                       : 4:2:0
Bit depth                                : 8 bits
Scan type                                : Progressive
Bits/(Pixel*Frame)                       : 0.142
Stream size                              : 480 MiB (95%)
Language                                 : English
Default                                  : Yes
Forced                                   : No
Color range                              : Limited
Color primaries                          : BT.709
Transfer characteristics                 : BT.709
Matrix coefficients                      : BT.709

Audio
ID                                       : 2
Format                                   : AC-3
Format/Info                              : Audio Coding 3
Commercial name                          : Dolby Digital
Codec ID                                 : A_AC3
Duration                                 : 9 min 32 s
Bit rate mode                            : Constant
Bit rate                                 : 384 kb/s
Channel(s)                               : 6 channels
Channel layout                           : L R C LFE Ls Rs
Sampling rate                            : 48.0 kHz
Frame rate                               : 31.250 FPS (1536 SPF)
Compression mode                         : Lossy
Stream size                              : 26.2 MiB (5%)
Language                                 : Amharic
Service kind                             : Complete Main
Default                                  : Yes
Forced                                   : No</pre>
</div></div>
</div></span><br>
<span style="color: #000000"><br>
<div class="bbCodeBlock bbCodeVfcHH HiddenContent">
<div class="attribution type">Hidden Content:</div>
<blockquote>You must reply before you can see the hidden data contained here.</blockquote>
</div></span></b>
<div class="messageTextEndMarker">&nbsp;</div>
</blockquote>
</article>]]></description>
                <author><![CDATA[SonMaxime]]></author>
                </item>

                </channel></rss>